/* XPM */
static char *solvespace_24x24[] = {
/* columns rows colors chars-per-pixel */
"24 24 5 1 ",
"  c black",
". c #1ED500",
"X c #DE00D6",
"o c #CBCBCB",
"O c None",
/* pixels */
"OOOOOOOOOOOOOOOOOOOOOOOO",
"OOOOOOOOOOOOOOOOOOOOOOOO",
"OOOOOOOOOOOOOOOOOOOOOOOO",
"OOOOOOOOOOOOOOOOOOOOOOOO",
"OOOOOOO OOOOOOOOOOOOOOOO",
"OOOOOOO OOOOOOOOOOOOOOOO",
"OOOOOOO OOOOOOOOOOOOOOOO",
"OOOOOOO OOOOOXOOOOOOOOOO",
"OOOOOOO OOOOOXoOOOOOOOOO",
"OOOOOOO OOOOOXoOOOOOOOOO",
"OOOOOOO OOOOOXoOOOOOOOOO",
"OOOOOOO OOOOOXoOOOOOOOOO",
"OOOOOOO OOOOOXoOOOOOOOOO",
"OOOOOOO OOXXXXXXXOOOOOOO",
"OOOOOOO OOOoooooooOOOOOO",
"OOOOOO...OOOOOOOOOOOOOOO",
"OOOO  ...           OOOO",
"OOOOOO...OOOOOOOOOOOOOOO",
"OOOOOOO OOOOOOOOOOOOOOOO",
"OOOOOOO OOOOOOOOOOOOOOOO",
"OOOOOOOOOOOOOOOOOOOOOOOO",
"OOOOOOOOOOOOOOOOOOOOOOOO",
"OOOOOOOOOOOOOOOOOOOOOOOO",
"OOOOOOOOOOOOOOOOOOOOOOOO"
};
