/* XPM */
static char *solvespace_48x48[] = {
/* columns rows colors chars-per-pixel */
"48 48 5 1 ",
"  c black",
". c #1ED500",
"X c #DE00D6",
"o c #CBCBCB",
"O c None",
/* pixels */
"OOOOOOOOOOOOOOOOOOOOOOOOOOOOOOOOOOOOOOOOOOOOOOOO",
"OOOOOOOOOOOOOOOOOOOOOOOOOOOOOOOOOOOOOOOOOOOOOOOO",
"OOOOOOOOOOOOOOOOOOOOOOOOOOOOOOOOOOOOOOOOOOOOOOOO",
"OOOOOOOOOOOOOOOOOOOOOOOOOOOOOOOOOOOOOOOOOOOOOOOO",
"OOOOOOOOOOOOOOOOOOOOOOOOOOOOOOOOOOOOOOOOOOOOOOOO",
"OOOOOOOOOOOOOOOOOOOOOOOOOOOOOOOOOOOOOOOOOOOOOOOO",
"OOOOOOOOOOOOOOOOOOOOOOOOOOOOOOOOOOOOOOOOOOOOOOOO",
"OOOOOOOOOOOOOOOOOOOOOOOOOOOOOOOOOOOOOOOOOOOOOOOO",
"OOOOOOOOOOOOOO  OOOOOOOOOOOOOOOOOOOOOOOOOOOOOOOO",
"OOOOOOOOOOOOOO  OOOOOOOOOOOOOOOOOOOOOOOOOOOOOOOO",
"OOOOOOOOOOOOOO  OOOOOOOOOOOOOOOOOOOOOOOOOOOOOOOO",
"OOOOOOOOOOOOOO  OOOOOOOOOOOOOOOOOOOOOOOOOOOOOOOO",
"OOOOOOOOOOOOOO  OOOOOOOOOOOOOOOOOOOOOOOOOOOOOOOO",
"OOOOOOOOOOOOOO  OOOOOOOOOXXOOOOOOOOOOOOOOOOOOOOO",
"OOOOOOOOOOOOOO  OOOOOOOOOXXoOOOOOOOOOOOOOOOOOOOO",
"OOOOOOOOOOOOOO  OOOOOOOOOXXoOOOOOOOOOOOOOOOOOOOO",
"OOOOOOOOOOOOOO  OOOOOOOOOXXoOOOOOOOOOOOOOOOOOOOO",
"OOOOOOOOOOOOOO  OOOOOOOOOXXoOOOOOOOOOOOOOOOOOOOO",
"OOOOOOOOOOOOOO  OOOOOOOOOXXoOOOOOOOOOOOOOOOOOOOO",
"OOOOOOOOOOOOOO  OOOOOOOOOXXoOOOOOOOOOOOOOOOOOOOO",
"OOOOOOOOOOOOOO  OOOOOOOOOXXoOOOOOOOOOOOOOOOOOOOO",
"OOOOOOOOOOOOOO  OOOOOOOOOXXoOOOOOOOOOOOOOOOOOOOO",
"OOOOOOOOOOOOOO  OOOOOOOOOXXoOOOOOOOOOOOOOOOOOOOO",
"OOOOOOOOOOOOOO  OOOOOOOOOXXoOOOOOOOOOOOOOOOOOOOO",
"OOOOOOOOOOOOOO  OOOOXXXXXXXXXXXXOOOOOOOOOOOOOOOO",
"OOOOOOOOOOOOOO  OOOOXXXXXXXXXXXXOOOOOOOOOOOOOOOO",
"OOOOOOOOOOOOOO  OOOOOooooooooooooOOOOOOOOOOOOOOO",
"OOOOOOOOOOOOOO  OOOOOOOOOOOOOOOOOOOOOOOOOOOOOOOO",
"OOOOOOOOOOOOOO  OOOOOOOOOOOOOOOOOOOOOOOOOOOOOOOO",
"OOOOOOOOOOOOOO  OOOOOOOOOOOOOOOOOOOOOOOOOOOOOOOO",
"OOOOOOOOOOOO......OOOOOOOOOOOOOOOOOOOOOOOOOOOOOO",
"OOOOOOOOOOOO......OOOOOOOOOOOOOOOOOOOOOOOOOOOOOO",
"OOOOOOOO    ......                      OOOOOOOO",
"OOOOOOOO    ......                      OOOOOOOO",
"OOOOOOOOOOOO......OOOOOOOOOOOOOOOOOOOOOOOOOOOOOO",
"OOOOOOOOOOOO......OOOOOOOOOOOOOOOOOOOOOOOOOOOOOO",
"OOOOOOOOOOOOOO  OOOOOOOOOOOOOOOOOOOOOOOOOOOOOOOO",
"OOOOOOOOOOOOOO  OOOOOOOOOOOOOOOOOOOOOOOOOOOOOOOO",
"OOOOOOOOOOOOOO  OOOOOOOOOOOOOOOOOOOOOOOOOOOOOOOO",
"OOOOOOOOOOOOOO  OOOOOOOOOOOOOOOOOOOOOOOOOOOOOOOO",
"OOOOOOOOOOOOOOOOOOOOOOOOOOOOOOOOOOOOOOOOOOOOOOOO",
"OOOOOOOOOOOOOOOOOOOOOOOOOOOOOOOOOOOOOOOOOOOOOOOO",
"OOOOOOOOOOOOOOOOOOOOOOOOOOOOOOOOOOOOOOOOOOOOOOOO",
"OOOOOOOOOOOOOOOOOOOOOOOOOOOOOOOOOOOOOOOOOOOOOOOO",
"OOOOOOOOOOOOOOOOOOOOOOOOOOOOOOOOOOOOOOOOOOOOOOOO",
"OOOOOOOOOOOOOOOOOOOOOOOOOOOOOOOOOOOOOOOOOOOOOOOO",
"OOOOOOOOOOOOOOOOOOOOOOOOOOOOOOOOOOOOOOOOOOOOOOOO",
"OOOOOOOOOOOOOOOOOOOOOOOOOOOOOOOOOOOOOOOOOOOOOOOO"
};
